<svg width="16" height="16" viewBox="0 0 16 16" fill="none" xmlns="http://www.w3.org/2000/svg">
<path d="M4.79999 12.8C3.91601 12.8 3.20801 13.516 3.20801 14.4C3.20801 15.284 3.91601 16 4.79999 16C5.68398 16 6.40001 15.284 6.40001 14.4C6.40001 13.516 5.68398 12.8 4.79999 12.8Z" fill="white"/>
<path d="M5.68001 8.8H11.64C12.24 8.8 12.764 8.46802 13.04 7.97602L15.9 2.784C15.964 2.67199 16 2.53999 16 2.4C16 1.956 15.64 1.60001 15.2 1.60001H3.372L2.61199 0H0V1.60001H1.60001L4.476 7.66799L3.396 9.62801C3.27199 9.86002 3.19999 10.12 3.19999 10.4C3.19999 11.284 3.91601 12 4.8 12H14.4V10.4H5.14001C5.028 10.4 4.94002 10.312 4.94002 10.2C4.94002 10.164 4.94801 10.132 4.96402 10.104L5.68001 8.8Z" fill="white"/>
<path d="M12.8 12.8C11.916 12.8 11.208 13.516 11.208 14.4C11.208 15.284 11.916 16 12.8 16C13.684 16 14.4 15.284 14.4 14.4C14.4 13.516 13.684 12.8 12.8 12.8Z" fill="white"/>
</svg>
