<svg width="16" height="16" viewBox="0 0 16 16" fill="none" xmlns="http://www.w3.org/2000/svg">
<g clip-path="url(#clip0)">
<path d="M15.0241 11.7676L12.7865 10.0894C13.3459 9.13038 13.5856 8.01156 13.5856 6.81283C13.5856 3.0568 10.5488 0.0200195 6.79281 0.0200195C3.03679 0.0200195 0 3.05681 0 6.8128C0 10.5688 3.03679 13.6056 6.79281 13.6056C7.99154 13.6056 9.03044 13.2859 10.0693 12.8065L11.7476 15.0441C12.6266 16.1629 14.3049 16.3227 15.3438 15.2838C16.3027 14.3248 16.2228 12.6466 15.0241 11.7676ZM6.79281 12.0073C3.91585 12.0073 1.59831 9.68978 1.59831 6.81283C1.59831 3.93587 3.91585 1.61833 6.79281 1.61833C9.66976 1.61833 11.9873 3.93587 11.9873 6.8128C11.9873 9.68972 9.66976 12.0073 6.79281 12.0073Z" fill="white"/>
</g>
<defs>
<clipPath id="clip0">
<rect width="16" height="16" fill="white"/>
</clipPath>
</defs>
</svg>
